<?xml version="1.0" encoding="UTF-8" standalone="no"?>
<!-- Svg Vector Icons : http://www.onlinewebfonts.com/icon -->

<svg
   xmlns:dc="http://purl.org/dc/elements/1.1/"
   xmlns:cc="http://creativecommons.org/ns#"
   xmlns:rdf="http://www.w3.org/1999/02/22-rdf-syntax-ns#"
   xmlns:svg="http://www.w3.org/2000/svg"
   xmlns="http://www.w3.org/2000/svg"
   xmlns:sodipodi="http://sodipodi.sourceforge.net/DTD/sodipodi-0.dtd"
   xmlns:inkscape="http://www.inkscape.org/namespaces/inkscape"
   version="1.1"
   x="0px"
   y="0px"
   viewBox="0 0 1000 1000"
   enable-background="new 0 0 1000 1000"
   xml:space="preserve"
   id="svg4202"
   inkscape:version="0.91 r13725"
   sodipodi:docname="comment.svg"><defs
     id="defs4212" /><sodipodi:namedview
     pagecolor="#ffffff"
     bordercolor="#666666"
     borderopacity="1"
     objecttolerance="10"
     gridtolerance="10"
     guidetolerance="10"
     inkscape:pageopacity="0"
     inkscape:pageshadow="2"
     inkscape:window-width="1889"
     inkscape:window-height="1173"
     id="namedview4210"
     showgrid="false"
     inkscape:zoom="0.941"
     inkscape:cx="500"
     inkscape:cy="500"
     inkscape:window-x="1080"
     inkscape:window-y="225"
     inkscape:window-maximized="1"
     inkscape:current-layer="svg4202" /><metadata
     id="metadata4204"> Svg Vector Icons : http://www.onlinewebfonts.com/icon <rdf:RDF><cc:Work
     rdf:about=""><dc:format>image/svg+xml</dc:format><dc:type
       rdf:resource="http://purl.org/dc/dcmitype/StillImage" /></cc:Work></rdf:RDF></metadata><g
     id="g4231"><rect
       y="111.58342"
       x="47.821468"
       height="590.86078"
       width="895.85547"
       id="rect4215"
       style="fill:#f2e600;fill-opacity:1;stroke:none;stroke-width:16.6;stroke-linejoin:round;stroke-miterlimit:4;stroke-dasharray:none;stroke-opacity:1" /><path
       inkscape:connector-curvature="0"
       id="path4227"
       d="m 225.29224,884.1658 0,-235.91926 252.92242,0 z"
       style="fill:#f2e600;fill-opacity:1;fill-rule:evenodd;stroke:none;stroke-width:1px;stroke-linecap:butt;stroke-linejoin:miter;stroke-opacity:1" /></g><path
     inkscape:connector-curvature="0"
     id="path4208"
     d="m 928.7,70.8 -857.5,0 C 37.4,70.8 10,98.2 10,132 l 0,552.8 c 0,33.8 27.4,61.3 61.2,61.3 l 122,0 0,152.5 c 0,12.4 7.4,23.5 18.8,28.2 3.8,1.6 7.9,2.4 11.8,2.4 7.9,0 15.6,-3.1 21.5,-8.8 l 177.1,-174.3 506.3,0 c 33.8,0 61.3,-27.4 61.3,-61.3 L 990,132 C 990,98.2 962.6,70.8 928.7,70.8 Z m 0,614.1 -531.3,0 -142.9,140.6 0,-140.6 -183.3,0 0,-552.9 857.5,0 0,552.9 z m -704.3,-245.2 551.3,0 c 16.9,0 30.6,-13.7 30.6,-30.6 0,-16.9 -13.7,-30.6 -30.6,-30.6 l -551.3,0 c -16.9,0 -30.6,13.7 -30.6,30.6 -0.1,16.9 13.7,30.6 30.6,30.6 z m 0,-122.5 551.3,0 c 16.9,0 30.6,-13.7 30.6,-30.6 0,-16.9 -13.7,-30.6 -30.6,-30.6 l -551.3,0 c -16.9,0 -30.6,13.7 -30.6,30.6 -0.1,16.9 13.7,30.6 30.6,30.6 z m 0,245 367.5,0 c 16.9,0 30.6,-13.7 30.6,-30.6 0,-16.9 -13.7,-30.6 -30.6,-30.6 l -367.5,0 c -16.9,0 -30.6,13.7 -30.6,30.6 -0.1,16.9 13.7,30.6 30.6,30.6 z"
     style="fill:#6f2100;fill-opacity:1" /></svg>